<?xml version="1.0" encoding="utf-8"?>
<svg version="1.1" id="Layer_x5F_2_1_" xmlns="http://www.w3.org/2000/svg" xmlns:xlink="http://www.w3.org/1999/xlink" x="0px"
	 y="0px" viewBox="0 0 750 807" style="enable-background:new 0 0 750 807;" xml:space="preserve">
<style type="text/css">
	.st0{fill:#37474F;}
	.st1{fill:#263238;}
	.st2{fill:#FFFFFF;}
</style>
<g id="Layer_x5F_1-2_1_">
	<g id="Layer">
		<g>
			<polygon class="st0" points="372.6,0 0,134.2 56.5,629.1 372.6,806 690.7,629.1 748.4,134.2 			"/>
		</g>
	</g>
	<g id="Layer_1_">
		<g>
			<polygon class="st1" points="372.6,0 372.6,806 690.7,629.1 748.4,134.2 			"/>
		</g>
	</g>
</g>
<g id="chevron-up-solid__x28_1_x29_-svg__x28_1_x29__xA0_Image_1_">
	<path class="st2" d="M391,277.5l194.3,194.3c9.4,9.4,9.4,24.6,0,33.9l-22.7,22.7c-9.4,9.4-24.5,9.4-33.9,0L374,374.5l-154.7,154
		c-9.4,9.3-24.5,9.3-33.9,0l-22.7-22.7c-9.4-9.4-9.4-24.6,0-33.9L357,277.5C366.4,268.2,381.6,268.2,391,277.5L391,277.5z"/>
</g>
</svg>
